<?xml version="1.0" encoding="UTF-8" standalone="no"?>
<svg
   xmlns:dc="http://purl.org/dc/elements/1.1/"
   xmlns:cc="http://creativecommons.org/ns#"
   xmlns:rdf="http://www.w3.org/1999/02/22-rdf-syntax-ns#"
   xmlns:svg="http://www.w3.org/2000/svg"
   xmlns="http://www.w3.org/2000/svg"
   xmlns:sodipodi="http://sodipodi.sourceforge.net/DTD/sodipodi-0.dtd"
   xmlns:inkscape="http://www.inkscape.org/namespaces/inkscape"
   width="357px"
   height="20px"
   viewBox="0 0 357 20"
   version="1.1"
   id="svg28"
   sodipodi:docname="logoTextLanding.svg"
   inkscape:version="0.92.1 r15371">
  <metadata
     id="metadata34">
    <rdf:RDF>
      <cc:Work
         rdf:about="">
        <dc:format>image/svg+xml</dc:format>
        <dc:type
           rdf:resource="http://purl.org/dc/dcmitype/StillImage" />
      </cc:Work>
    </rdf:RDF>
  </metadata>
  <defs
     id="defs32" />
  <sodipodi:namedview
     pagecolor="#ffffff"
     bordercolor="#666666"
     borderopacity="1"
     objecttolerance="10"
     gridtolerance="10"
     guidetolerance="10"
     inkscape:pageopacity="0"
     inkscape:pageshadow="2"
     inkscape:window-width="1379"
     inkscape:window-height="768"
     id="namedview30"
     showgrid="false"
     inkscape:zoom="1.1120448"
     inkscape:cx="178.5"
     inkscape:cy="10"
     inkscape:window-x="0"
     inkscape:window-y="27"
     inkscape:window-maximized="0"
     inkscape:current-layer="svg28" />
  <!-- Generator: Sketch 54.1 (76490) - https://sketchapp.com -->
  <title
     id="title2">logoTextLanding</title>
  <desc
     id="desc4">Created with Sketch.</desc>
  <g
     id="Official"
     stroke="none"
     stroke-width="1"
     fill="none"
     fill-rule="evenodd">
    <g
       id="Login"
       transform="translate(-986.000000, -127.000000)"
       fill="#222222"
       fill-rule="nonzero">
      <g
         id="logo"
         transform="translate(843.000000, 89.000000)">
        <g
           id="logoText"
           transform="translate(143.000000, 38.000000)">
          <path
             d="M7.97855564,0.909090909 C10.6016424,0.909090909 14.0494118,1.98632383 14.0494118,5.48030537 C14.0494118,7.35375392 12.8272918,8.81504379 10.5420268,9.46138354 L10.5420268,9.517587 C12.9935115,9.6791832 14.8990412,11.5940516 14.9138381,13.9108238 C14.9138381,17.4048054 11.8038905,19.0909091 7.41220735,19.0909091 L0,19.0909091 L0,0.909090909 L7.97855564,0.909090909 Z M6.98496216,8.30921268 C9.15099594,8.30921268 10.4625393,7.37248841 10.4625393,6.02360545 C10.4625393,4.43117418 9.15099594,3.68179476 6.69682005,3.68179476 L3.58687246,3.68179476 L3.58687246,8.30921268 L6.98496216,8.30921268 Z M7.0545137,16.2994708 C9.90612699,16.2994708 11.3567735,15.4283172 11.3567735,13.6298066 C11.3567735,11.831296 9.98561446,11.0631821 7.2532324,11.0631821 L3.6266162,11.0631821 L3.6266162,16.2994708 L7.0545137,16.2994708 Z"
             id="Shape" />
          <polygon
             id="Path"
             points="52.6458486 0.909090909 52.6458486 3.83801993 43.4738381 3.83801993 43.4738381 8.30159547 52.17047 8.30159547 52.17047 11.2211669 43.4738381 11.2211669 43.4738381 16.1526225 53.1305483 16.1526225 53.1305483 19.0909091 40.0809399 19.0909091 40.0809399 0.909090909" />
          <path
             d="M89.381151,1.86322827 L86.936086,4.34700231 C86.1215671,3.3728509 84.9008664,2.84046826 83.6389529,2.90902787 C81.7866309,2.90902787 80.5548368,3.8427775 80.5548368,5.24340196 C80.5548368,6.46661399 81.6199219,7.11090124 83.4815055,7.69916351 C86.4822671,8.63291315 89.4830287,9.56666278 89.4830287,13.3016613 C89.4830287,17.0366599 86.4266975,19.0909091 82.7313151,19.0909091 C80.0732331,19.0909091 77.8967547,18.3252344 76.4334204,16.6351475 L78.9618399,14.272761 C79.8171575,15.4713764 81.2021939,16.1695689 82.6664838,16.1402602 C84.5188058,16.1402602 85.963617,15.1131356 85.963617,13.6564862 C85.963617,12.1998368 85.037456,11.583562 82.592391,10.8552373 C79.2119033,9.85612517 77.035425,8.7543006 77.035425,5.47683937 C77.035425,2.19937814 79.8787392,0.00506649139 83.9723708,0.00506649139 C85.9402962,-0.0651319707 87.8652005,0.59616013 89.381151,1.86322827 L89.381151,1.86322827 Z"
             id="path8" />
          <polygon
             id="polygon10"
             points="128.631854 0.909090909 128.631854 3.83801993 122.488712 3.83801993 122.488712 19.0909091 118.929042 19.0909091 118.929042 3.83801993 112.785901 3.83801993 112.785901 0.909090909" />
          <path
             d="M164.882456,1.86374492 L162.437391,4.34744447 C161.625559,3.36968622 160.402961,2.83649206 159.140258,2.90951315 C157.287936,2.90951315 156.056142,3.84323479 156.056142,5.24381724 C156.056142,6.46699258 157.121227,7.11126051 158.982811,7.69950514 C161.983573,8.63322678 164.984334,9.56694841 164.984334,13.301835 C164.984334,17.0367215 161.928003,19.0909091 158.232621,19.0909091 C155.574539,19.0909091 153.39806,18.3252573 151.934726,16.6352212 L154.463145,14.2729055 C155.319527,15.470224 156.703861,16.1680414 158.167789,16.1403487 C159.973803,16.1403487 161.464922,15.1132549 161.464922,13.6566492 C161.464922,12.2000434 160.538761,11.5837871 158.084435,10.8554843 C154.713209,9.85640212 152.527469,8.75461059 152.527469,5.47724765 C152.527469,2.19988471 155.370783,0.00563886593 159.464415,0.00563886593 C161.43575,-0.0686357138 163.364959,0.592982663 164.882456,1.86374492 L164.882456,1.86374492 Z"
             id="path12" />
          <polygon
             id="polygon14"
             points="201.78423 0.909090909 201.78423 3.83801993 192.612219 3.83801993 192.612219 8.30159547 201.29953 8.30159547 201.29953 11.2211669 192.612219 11.2211669 192.612219 16.1526225 202.26893 16.1526225 202.26893 19.0909091 189.219321 19.0909091 189.219321 0.909090909" />
          <path
             d="M243.759496,2.89359661 L241.041549,4.76414663 C239.992859,3.61780986 238.484531,2.96353836 236.901757,2.96841861 C235.095507,2.90018288 233.34104,3.560183 232.057364,4.79079585 C230.773689,6.02140871 230.076053,7.71214823 230.13107,9.45922718 C230.13107,13.2003272 232.732949,16.20256 236.901757,16.20256 C238.650821,16.1674345 240.282427,15.3439944 241.312376,13.9766055 L244.214099,15.8471555 C242.445386,17.9967099 239.720678,19.1993388 236.882412,19.083207 C230.837156,19.083207 226.503916,15.2579322 226.503916,9.61822393 C226.503916,3.97851562 230.614691,0.0035968342 236.882412,0.0035968342 C239.505193,-0.0700088136 242.025729,0.989211451 243.759496,2.89359661 L243.759496,2.89359661 Z"
             id="path16" />
          <path
             d="M274.502057,0.909090909 C278.296184,0.909090909 281.759541,2.1442942 281.759541,6.12127451 C281.866023,8.68344812 279.836689,10.863344 277.177403,11.0433725 L282.430809,19.0721939 L278.179441,19.0721939 L273.607032,11.3802461 L271.0387,11.3802461 L271.0387,19.0909091 L267.516971,19.0909091 L267.516971,0.909090909 L274.502057,0.909090909 Z M273.937802,8.61039629 C275.951608,8.61039629 278.072427,8.34838347 278.072427,6.0932017 C278.072427,4.01581435 276.039164,3.67894072 274.181015,3.67894072 L271.028971,3.67894072 L271.028971,8.61039629 L273.937802,8.61039629 Z"
             id="path18" />
          <polygon
             id="polygon20"
             points="317.375796 0.909090909 317.375796 3.83801993 308.194465 3.83801993 308.194465 8.30159547 316.891097 8.30159547 316.891097 11.2211669 308.194465 11.2211669 308.194465 16.1526225 317.851175 16.1526225 317.851175 19.0909091 304.801567 19.0909091 304.801567 0.909090909" />
          <polygon
             id="polygon22"
             points="357 0.909090909 357 3.83801993 350.856858 3.83801993 350.856858 19.0909091 347.287328 19.0909091 347.287328 3.83801993 341.154047 3.83801993 341.154047 0.909090909" />
        </g>
      </g>
    </g>
  </g>
  <rect
     style="fill:#000000"
     id="rect3708"
     width="361.49622"
     height="18.191666"
     x="0"
     y="0.90909094" />
</svg>
